<?xml version="1.0" encoding="utf-8"?>
<!-- Generator: Adobe Illustrator 22.1.0, SVG Export Plug-In . SVG Version: 6.00 Build 0)  -->
<svg version="1.1" id="Layer_1" xmlns="http://www.w3.org/2000/svg" xmlns:xlink="http://www.w3.org/1999/xlink" x="0px" y="0px"
	 viewBox="0 0 128 43.9" style="enable-background:new 0 0 128 43.9;" xml:space="preserve">
<style type="text/css">
	.st0{fill:#00B7B0;}
</style>
<g>
	<path class="st0" d="M0.2,0v43.8H128V0H0.2z M42.2,42H1.9V1.7h40.3V42z M84.2,42H43.9V1.7h40.3V42z M126.3,42H86V1.7h40.3
		C126.3,1.7,126.3,42,126.3,42z"/>
	<path class="st0" d="M25.4,30.9c2.5-0.2,4.4-2.1,4.4-5.1c0-2.2-1.3-3.5-2.8-4.2c1-0.7,1.9-1.9,1.9-3.9c0-2.4-1.1-3.9-3.1-4.6
		c-1.2-0.4-2.7-0.6-4.5-0.6c-3.4,0-5.1,0-6.9,0V31c0,0,5.8,0.1,6.7,0.1C22.8,31.1,24,31,25.4,30.9z M18.7,16.2H20h0.7
		c2.2,0,3.9,0.1,3.9,2.1c0,0.8-0.4,1.3-1.1,1.7c-0.5,0.2-1.1,0.2-1.8,0.2c-0.5,0-1.1,0-3,0C18.7,20.2,18.7,16.2,18.7,16.2z
		 M18.7,23.1c1.7,0,2.7,0,3,0c0.7,0,1.5,0,2.1,0.2c0.8,0.2,1.6,0.8,1.6,1.9c0,2.1-1.7,2.2-3.8,2.2c-0.2,0-2.8,0-2.8,0v-4.4H18.7z"/>
	<polygon class="st0" points="62.6,23.7 69.3,23.7 69.3,20.1 62.6,20.1 62.6,16.6 70,16.6 70,12.7 58,12.7 58,31 62.6,31 	"/>
	<path class="st0" d="M106.2,31.5c2.5,0,4.1-1.5,4.7-2.4l0.2,1.9h3.4v-9.8h-7.5v3h3.1v0.2c0,1.6-1,3.4-3.4,3.4c-2.3,0-4-2.2-4-5.9
		c0-3.9,1.6-5.9,3.9-5.9c1.7,0,2.8,0.8,3.4,2.7l4.6-1c-1-3.3-3.4-5.3-7.9-5.3c-5.4,0-8.7,4.4-8.7,9.7
		C97.9,27.6,100.8,31.5,106.2,31.5z"/>
</g>
</svg>
